<svg version="1.1" id="Layer_1" xmlns="http://www.w3.org/2000/svg" xmlns:xlink="http://www.w3.org/1999/xlink" x="0px" y="0px"
	 width="100%" viewBox="0 0 200 200" enable-background="new 0 0 200 200" xml:space="preserve">
<path fill="#FEFEFE" opacity="1.000000" stroke="none" 
	d="
M123.000000,201.000000 
	C82.025322,201.000000 41.550652,201.000000 1.037988,201.000000 
	C1.037988,134.400360 1.037988,67.800705 1.037988,1.100519 
	C67.557831,1.100519 134.115875,1.100519 200.836945,1.100519 
	C200.836945,67.666344 200.836945,134.333145 200.836945,201.000000 
	C175.134323,201.000000 149.317154,201.000000 123.000000,201.000000 
M80.738281,91.045921 
	C83.934921,96.821976 86.998047,102.679382 90.430489,108.311745 
	C91.202179,109.578041 93.244255,110.741364 94.734978,110.784088 
	C101.834785,110.987572 108.946159,110.787964 116.974686,110.860207 
	C123.608192,110.872345 130.250031,111.070297 136.869690,110.773491 
	C138.652588,110.693550 141.052109,109.561676 141.991531,108.136703 
	C145.359451,103.028061 148.365250,97.660385 151.176315,92.219307 
	C151.876205,90.864578 151.961533,88.521362 151.250778,87.222832 
	C147.838379,80.988533 144.056152,74.956657 140.245377,68.413849 
	C140.245377,68.413849 139.926727,68.074081 139.828110,67.376198 
	C136.693085,61.936222 133.345123,56.604389 130.505798,51.014229 
	C128.895828,47.844460 126.793625,46.979183 123.440384,47.080040 
	C116.994995,47.273888 110.536819,47.042892 103.791374,46.352283 
	C100.539093,40.740650 97.451393,35.022293 93.926857,29.587214 
	C92.962143,28.099556 90.735199,26.681475 89.004875,26.575077 
	C83.029945,26.207674 77.012352,26.285524 71.025291,26.535717 
	C69.494263,26.599699 67.365318,27.524536 66.622574,28.735563 
	C62.804447,34.960934 59.348698,41.408562 55.248123,48.221718 
	C51.839050,54.128292 48.280270,59.956863 45.131905,65.999283 
	C44.394936,67.413689 44.437061,69.864250 45.170864,71.302238 
	C47.889172,76.629189 50.866611,81.850403 54.150997,86.845497 
	C55.108398,88.301575 57.376358,89.633865 59.105190,89.715309 
	C66.085556,90.044167 73.089996,89.862183 80.296600,90.159714 
	C80.296600,90.159714 80.606949,90.343010 80.738281,91.045921 
M27.385103,140.175888 
	C27.996210,139.284042 29.009060,138.445358 29.135527,137.489395 
	C29.406158,135.443710 29.218426,133.337372 29.218426,131.255890 
	C29.626999,131.644760 30.035574,132.033646 30.444147,132.422531 
	C34.037266,131.018814 38.361839,130.377930 40.935070,127.910568 
	C42.361328,126.542984 42.024414,121.127037 40.444016,119.277191 
	C36.756618,114.961098 31.302191,117.368301 26.637890,117.260414 
	C26.637890,125.150322 26.637890,132.558258 27.385103,140.175888 
M98.454483,123.785110 
	C96.207802,124.017937 93.961121,124.250763 90.620033,124.597008 
	C94.620094,128.129059 100.836823,122.865288 102.413345,130.118607 
	C100.271629,130.118607 98.568810,129.796783 97.057144,130.196976 
	C94.991425,130.743866 92.288849,131.339325 91.321602,132.850143 
	C90.457130,134.200424 90.847679,137.784180 91.993874,138.651031 
	C93.644844,139.899628 96.474815,139.795090 98.813629,139.864731 
	C100.764168,139.922821 102.731987,139.400848 105.218201,139.064636 
	C105.218201,136.601837 105.065796,133.308640 105.255615,130.035294 
	C105.510086,125.647118 103.814865,123.394234 98.454483,123.785110 
M57.834415,139.481491 
	C60.837952,135.974762 62.176540,129.717194 59.442467,126.815781 
	C57.654758,124.918655 54.008865,123.927917 51.266800,124.056480 
	C49.268238,124.150192 46.353863,126.345253 45.629307,128.273102 
	C42.299816,137.131927 47.303257,141.985794 57.834415,139.481491 
M128.865646,123.768867 
	C123.603401,124.713844 121.775475,127.146469 122.116646,132.750549 
	C122.443848,138.125168 124.330231,140.229782 129.150497,140.598114 
	C134.888657,141.036591 137.631470,138.687592 137.905594,133.100113 
	C138.244064,126.200356 136.366562,124.082603 128.865646,123.768867 
M169.117432,140.597626 
	C175.025848,139.186050 177.618149,134.361938 175.037399,128.177353 
	C174.237671,126.260857 171.363251,124.109581 169.382050,124.053123 
	C166.638657,123.974930 162.643585,124.952835 161.290771,126.924042 
	C157.112320,133.012512 160.997025,139.948380 169.117432,140.597626 
M115.209450,116.501091 
	C114.071999,117.709915 112.712067,118.780807 111.854904,120.163406 
	C110.844276,121.793549 110.268860,123.693504 109.477455,125.540131 
	C114.755417,129.072800 109.827972,135.517624 113.189590,140.269272 
	C115.759171,136.079178 113.699150,130.959488 115.031136,126.747276 
	C116.964256,126.277252 118.590187,125.881920 120.216110,125.486588 
	C120.140099,125.088104 120.064079,124.689613 119.988068,124.291130 
	C118.274666,124.069283 116.561272,123.847435 114.943367,123.637955 
	C113.090233,117.478699 118.983253,119.783012 122.628693,117.091660 
	C119.457489,116.754723 117.727776,116.570946 115.209450,116.501091 
M145.265671,120.027809 
	C144.804871,119.008186 144.344070,117.988564 143.883270,116.968941 
	C143.374802,117.639313 142.436508,118.302536 142.425232,118.981178 
	C142.326385,124.925217 142.135208,130.888031 142.503204,136.812225 
	C142.740036,140.624939 146.064285,141.482178 149.965179,138.355164 
	C144.677002,138.410141 145.201279,135.022675 145.252197,131.837723 
	C145.310272,128.204468 145.265656,124.569572 145.265671,120.027809 
M79.982849,135.093155 
	C80.918129,140.758469 83.562965,142.019440 87.836388,138.837463 
	C82.464470,136.958145 81.890732,135.270599 83.628250,126.450233 
	C85.189217,126.194328 86.750191,125.938431 88.311157,125.682526 
	C88.270584,125.250435 88.230019,124.818352 88.189453,124.386261 
	C86.549904,124.162605 84.910362,123.938950 83.243538,123.711571 
	C83.052429,122.152397 82.877388,120.724319 82.493332,117.591057 
	C80.359962,120.994278 78.993706,123.173782 77.539902,125.492943 
	C79.981667,126.939735 79.981667,126.939735 79.982849,135.093155 
M66.594025,140.191650 
	C67.074921,138.360260 68.094849,136.479797 67.933525,134.706848 
	C67.487152,129.801590 68.376450,126.304985 74.222015,126.109444 
	C74.660248,126.094780 75.063911,125.046799 75.868607,123.958580 
	C71.927231,124.323288 68.686638,124.623154 64.863060,124.976959 
	C65.149162,129.606613 65.471001,134.814514 66.594025,140.191650 
M155.609665,125.188293 
	C154.187134,123.392693 152.898270,123.180092 152.793777,125.853851 
	C152.609177,130.576675 152.742065,135.311905 152.742065,140.041946 
	C153.219864,140.184357 153.697662,140.326767 154.175461,140.469177 
	C154.667343,139.482529 155.539429,138.512527 155.583527,137.506256 
	C155.750183,133.702942 155.648041,129.887848 155.609665,125.188293 
z"/>
<path fill="#0389FE" opacity="1.000000" stroke="none" 
	d="
M80.085548,89.868813 
	C73.089996,89.862183 66.085556,90.044167 59.105190,89.715309 
	C57.376358,89.633865 55.108398,88.301575 54.150997,86.845497 
	C50.866611,81.850403 47.889172,76.629189 45.170864,71.302238 
	C44.437061,69.864250 44.394936,67.413689 45.131905,65.999283 
	C48.280270,59.956863 51.839050,54.128292 55.625931,48.094704 
	C56.003742,47.967686 56.269955,48.113384 56.340210,48.431114 
	C59.485130,54.015114 62.786018,59.166332 65.545822,64.592735 
	C67.090706,67.630341 69.100197,68.314941 72.228706,68.257507 
	C78.486214,68.142632 84.751099,68.429726 91.002228,68.804909 
	C91.025444,69.400116 91.059364,69.741257 90.941818,70.392845 
	C87.222084,77.091797 83.653816,83.480301 80.085548,89.868813 
z"/>
<path fill="#314D99" opacity="1.000000" stroke="none" 
	d="
M55.885071,47.873131 
	C59.348698,41.408562 62.804447,34.960934 66.622574,28.735563 
	C67.365318,27.524536 69.494263,26.599699 71.025291,26.535717 
	C77.012352,26.285524 83.029945,26.207674 89.004875,26.575077 
	C90.735199,26.681475 92.962143,28.099556 93.926857,29.587214 
	C97.451393,35.022293 100.539093,40.740650 103.899948,46.933151 
	C103.979408,47.689045 103.950302,47.864063 103.461533,48.007759 
	C95.646507,47.973824 88.291168,47.971214 80.471222,47.963821 
	C72.094398,48.010487 64.182175,48.061935 56.269955,48.113384 
	C56.269955,48.113384 56.003742,47.967686 55.885071,47.873131 
z"/>
<path fill="#B17FC9" opacity="1.000000" stroke="none" 
	d="
M140.405258,68.852898 
	C144.056152,74.956657 147.838379,80.988533 151.250778,87.222832 
	C151.961533,88.521362 151.876205,90.864578 151.176315,92.219307 
	C148.365250,97.660385 145.359451,103.028061 141.991531,108.136703 
	C141.052109,109.561676 138.652588,110.693550 136.869690,110.773491 
	C130.250031,111.070297 123.608192,110.872345 116.514282,110.595963 
	C116.053886,110.331711 116.076561,109.930740 116.349503,109.750259 
	C120.390656,103.025566 124.158859,96.481346 127.963150,89.720505 
	C127.999237,89.503891 128.048309,89.067436 128.323883,88.865601 
	C132.534729,82.060143 136.469986,75.456520 140.405258,68.852898 
z"/>
<path fill="#1F8E9F" opacity="1.000000" stroke="none" 
	d="
M103.921204,48.039082 
	C103.950302,47.864063 103.979408,47.689045 104.046234,47.251068 
	C110.536819,47.042892 116.994995,47.273888 123.440384,47.080040 
	C126.793625,46.979183 128.895828,47.844460 130.505798,51.014229 
	C133.345123,56.604389 136.693085,61.936222 139.412781,67.722412 
	C131.369827,68.079918 123.742180,68.091209 115.634155,68.077423 
	C107.749115,68.027191 100.344452,68.002029 93.000969,67.628586 
	C96.681824,60.866558 100.301514,54.452820 103.921204,48.039082 
z"/>
<path fill="#75BEFF" opacity="1.000000" stroke="none" 
	d="
M116.076561,109.930740 
	C116.076561,109.930740 116.053886,110.331711 116.053650,110.531754 
	C108.946159,110.787964 101.834785,110.987572 94.734978,110.784088 
	C93.244255,110.741364 91.202179,109.578041 90.430489,108.311745 
	C86.998047,102.679382 83.934921,96.821976 81.161354,90.551826 
	C89.040703,89.957336 96.496979,89.856949 104.158203,89.870453 
	C104.363144,89.984344 104.815712,90.100502 104.892197,90.448601 
	C108.671310,97.174713 112.373932,103.552727 116.076561,109.930740 
z"/>
<path fill="#4E50A0" opacity="1.000000" stroke="none" 
	d="
M116.114532,68.102493 
	C123.742180,68.091209 131.369827,68.079918 139.462097,68.071358 
	C139.926727,68.074081 140.245377,68.413849 140.325317,68.633377 
	C136.469986,75.456520 132.534729,82.060143 128.178848,88.544525 
	C123.881409,81.969658 120.004593,75.514030 116.116730,68.819534 
	C116.105682,68.580658 116.114532,68.102493 116.114532,68.102493 
z"/>
<path fill="#16939E" opacity="1.000000" stroke="none" 
	d="
M103.953255,89.756554 
	C96.496979,89.856949 89.040703,89.957336 81.095688,90.200371 
	C80.606949,90.343010 80.296600,90.159714 80.191071,90.014267 
	C83.653816,83.480301 87.222084,77.091797 91.285072,70.403534 
	C92.811737,71.312859 94.019630,72.413406 94.844353,73.750328 
	C97.964943,78.808975 100.961250,83.944290 103.996506,89.227692 
	C103.988945,89.404472 103.953255,89.756554 103.953255,89.756554 
z"/>
<path fill="#131313" opacity="1.000000" stroke="none" 
	d="
M27.011497,140.071045 
	C26.637890,132.558258 26.637890,125.150322 26.637890,117.260414 
	C31.302191,117.368301 36.756618,114.961098 40.444016,119.277191 
	C42.024414,121.127037 42.361328,126.542984 40.935070,127.910568 
	C38.361839,130.377930 34.037266,131.018814 30.444147,132.422531 
	C30.035574,132.033646 29.626999,131.644760 29.218426,131.255890 
	C29.218426,133.337372 29.406158,135.443710 29.135527,137.489395 
	C29.009060,138.445358 27.996210,139.284042 27.011497,140.071045 
M38.293613,121.335396 
	C35.409992,120.547043 32.526371,119.758698 29.153915,118.836700 
	C29.153915,121.611107 29.120100,122.925964 29.163029,124.238312 
	C29.209848,125.669525 29.327789,127.098419 29.410887,128.465149 
	C38.071930,129.400742 38.966370,128.751801 38.293613,121.335396 
z"/>
<path fill="#131313" opacity="1.000000" stroke="none" 
	d="
M98.845818,123.785233 
	C103.814865,123.394234 105.510086,125.647118 105.255615,130.035294 
	C105.065796,133.308640 105.218201,136.601837 105.218201,139.064636 
	C102.731987,139.400848 100.764168,139.922821 98.813629,139.864731 
	C96.474815,139.795090 93.644844,139.899628 91.993874,138.651031 
	C90.847679,137.784180 90.457130,134.200424 91.321602,132.850143 
	C92.288849,131.339325 94.991425,130.743866 97.057144,130.196976 
	C98.568810,129.796783 100.271629,130.118607 102.413345,130.118607 
	C100.836823,122.865288 94.620094,128.129059 90.620033,124.597008 
	C93.961121,124.250763 96.207802,124.017937 98.845818,123.785233 
M100.407600,136.946045 
	C101.089073,135.706528 101.770538,134.467010 102.701981,132.772842 
	C99.265724,132.772842 96.827255,132.772842 94.433075,132.772842 
	C93.639397,138.250107 94.109268,138.625305 100.407600,136.946045 
z"/>
<path fill="#1C1C1C" opacity="1.000000" stroke="none" 
	d="
M57.502182,139.691345 
	C47.303257,141.985794 42.299816,137.131927 45.629307,128.273102 
	C46.353863,126.345253 49.268238,124.150192 51.266800,124.056480 
	C54.008865,123.927917 57.654758,124.918655 59.442467,126.815781 
	C62.176540,129.717194 60.837952,135.974762 57.502182,139.691345 
M55.185169,137.823975 
	C55.862072,134.953217 56.867290,132.101120 57.032146,129.201248 
	C57.087479,128.227982 55.089161,126.420067 53.874393,126.272751 
	C52.328915,126.085327 49.477234,126.872841 49.211483,127.812256 
	C48.487801,130.370453 48.252193,133.404297 49.005527,135.891541 
	C49.350410,137.030228 52.471127,137.328171 55.185169,137.823975 
z"/>
<path fill="#1C1C1C" opacity="1.000000" stroke="none" 
	d="
M129.247009,123.766312 
	C136.366562,124.082603 138.244064,126.200356 137.905594,133.100113 
	C137.631470,138.687592 134.888657,141.036591 129.150497,140.598114 
	C124.330231,140.229782 122.443848,138.125168 122.116646,132.750549 
	C121.775475,127.146469 123.603401,124.713844 129.247009,123.766312 
M125.217911,132.470337 
	C126.472946,134.328705 127.337341,137.083771 129.072647,137.839767 
	C131.822433,139.037750 134.465027,137.522232 134.684601,134.149918 
	C134.891113,130.978241 135.782272,127.026009 131.056686,126.133850 
	C126.835205,125.336861 125.488327,128.055862 125.217911,132.470337 
z"/>
<path fill="#1C1C1C" opacity="1.000000" stroke="none" 
	d="
M168.720596,140.604218 
	C160.997025,139.948380 157.112320,133.012512 161.290771,126.924042 
	C162.643585,124.952835 166.638657,123.974930 169.382050,124.053123 
	C171.363251,124.109581 174.237671,126.260857 175.037399,128.177353 
	C177.618149,134.361938 175.025848,139.186050 168.720596,140.604218 
M164.086349,127.730217 
	C163.795914,129.513931 163.281128,131.295914 163.267349,133.081772 
	C163.246384,135.798325 164.139206,138.284622 167.450699,137.999786 
	C169.026855,137.864227 171.676865,136.842377 171.818893,135.913040 
	C172.243881,133.132019 172.242233,129.956436 171.181244,127.454803 
	C170.805542,126.568947 166.898499,127.180786 164.086349,127.730217 
z"/>
<path fill="#222222" opacity="1.000000" stroke="none" 
	d="
M115.603760,116.444138 
	C117.727776,116.570946 119.457489,116.754723 122.628693,117.091660 
	C118.983253,119.783012 113.090233,117.478699 114.943367,123.637955 
	C116.561272,123.847435 118.274666,124.069283 119.988068,124.291130 
	C120.064079,124.689613 120.140099,125.088104 120.216110,125.486588 
	C118.590187,125.881920 116.964256,126.277252 115.031136,126.747276 
	C113.699150,130.959488 115.759171,136.079178 113.189590,140.269272 
	C109.827972,135.517624 114.755417,129.072800 109.477455,125.540131 
	C110.268860,123.693504 110.844276,121.793549 111.854904,120.163406 
	C112.712067,118.780807 114.071999,117.709915 115.603760,116.444138 
z"/>
<path fill="#252525" opacity="1.000000" stroke="none" 
	d="
M145.265671,120.481598 
	C145.265656,124.569572 145.310272,128.204468 145.252197,131.837723 
	C145.201279,135.022675 144.677002,138.410141 149.965179,138.355164 
	C146.064285,141.482178 142.740036,140.624939 142.503204,136.812225 
	C142.135208,130.888031 142.326385,124.925217 142.425232,118.981178 
	C142.436508,118.302536 143.374802,117.639313 143.883270,116.968941 
	C144.344070,117.988564 144.804871,119.008186 145.265671,120.481598 
z"/>
<path fill="#0A0A0A" opacity="1.000000" stroke="none" 
	d="
M79.982338,134.651733 
	C79.981667,126.939735 79.981667,126.939735 77.539902,125.492943 
	C78.993706,123.173782 80.359962,120.994278 82.493332,117.591057 
	C82.877388,120.724319 83.052429,122.152397 83.243538,123.711571 
	C84.910362,123.938950 86.549904,124.162605 88.189453,124.386261 
	C88.230019,124.818352 88.270584,125.250435 88.311157,125.682526 
	C86.750191,125.938431 85.189217,126.194328 83.627274,126.452278 
	C81.890732,135.270599 82.464470,136.958145 87.836388,138.837463 
	C83.562965,142.019440 80.918129,140.758469 79.982338,134.651733 
z"/>
<path fill="#131313" opacity="1.000000" stroke="none" 
	d="
M66.193436,140.107025 
	C65.471001,134.814514 65.149162,129.606613 64.863060,124.976959 
	C68.686638,124.623154 71.927231,124.323288 75.868607,123.958580 
	C75.063911,125.046799 74.660248,126.094780 74.222015,126.109444 
	C68.376450,126.304985 67.487152,129.801590 67.933525,134.706848 
	C68.094849,136.479797 67.074921,138.360260 66.193436,140.107025 
z"/>
<path fill="#252525" opacity="1.000000" stroke="none" 
	d="
M155.628082,125.632721 
	C155.648041,129.887848 155.750183,133.702942 155.583527,137.506256 
	C155.539429,138.512527 154.667343,139.482529 154.175461,140.469177 
	C153.697662,140.326767 153.219864,140.184357 152.742065,140.041946 
	C152.742065,135.311905 152.609177,130.576675 152.793777,125.853851 
	C152.898270,123.180092 154.187134,123.392693 155.628082,125.632721 
z"/>
<path fill="#003496" opacity="1.000000" stroke="none" 
	d="
M56.340210,48.431114 
	C64.182175,48.061935 72.094398,48.010487 80.523788,48.325199 
	C84.408432,54.972565 87.775917,61.253769 91.119041,67.790001 
	C91.067444,68.213631 91.040192,68.382240 91.012939,68.550850 
	C84.751099,68.429726 78.486214,68.142632 72.228706,68.257507 
	C69.100197,68.314941 67.090706,67.630341 65.545822,64.592735 
	C62.786018,59.166332 59.485130,54.015114 56.340210,48.431114 
z"/>
<path fill="#0D86D0" opacity="1.000000" stroke="none" 
	d="
M91.002228,68.804909 
	C91.040192,68.382240 91.067444,68.213631 91.346680,67.824646 
	C92.045708,67.728462 92.492752,67.852669 92.939796,67.976868 
	C100.344452,68.002029 107.749115,68.027191 115.634155,68.077423 
	C116.114532,68.102493 116.105682,68.580658 115.925064,69.106750 
	C111.830986,76.105530 107.917519,82.578224 104.004059,89.050919 
	C100.961250,83.944290 97.964943,78.808975 94.844353,73.750328 
	C94.019630,72.413406 92.811737,71.312859 91.436539,70.093094 
	C91.059364,69.741257 91.025444,69.400116 91.002228,68.804909 
z"/>
<path fill="#0A3971" opacity="1.000000" stroke="none" 
	d="
M93.000969,67.628586 
	C92.492752,67.852669 92.045708,67.728462 91.371033,67.569611 
	C87.775917,61.253769 84.408432,54.972565 80.988388,48.329983 
	C88.291168,47.971214 95.646507,47.973824 103.461533,48.007759 
	C100.301514,54.452820 96.681824,60.866558 93.000969,67.628586 
z"/>
<path fill="#4A4DB7" opacity="1.000000" stroke="none" 
	d="
M103.996498,89.227692 
	C107.917519,82.578224 111.830986,76.105530 115.936111,69.345627 
	C120.004593,75.514030 123.881409,81.969658 127.903267,88.746361 
	C128.048309,89.067436 127.999237,89.503891 127.502014,89.732719 
	C119.608429,90.007866 112.212067,90.054184 104.815712,90.100494 
	C104.815712,90.100502 104.363144,89.984344 104.158203,89.870453 
	C103.953255,89.756554 103.988945,89.404472 103.996498,89.227692 
z"/>
<path fill="#7562C8" opacity="1.000000" stroke="none" 
	d="
M104.892197,90.448593 
	C112.212067,90.054184 119.608429,90.007866 127.465919,89.949341 
	C124.158859,96.481346 120.390656,103.025566 116.349503,109.750259 
	C112.373932,103.552727 108.671310,97.174713 104.892197,90.448593 
z"/>
<path fill="#E7E7E7" opacity="1.000000" stroke="none" 
	d="
M38.476669,121.693970 
	C38.966370,128.751801 38.071930,129.400742 29.410887,128.465149 
	C29.327789,127.098419 29.209848,125.669525 29.163029,124.238312 
	C29.120100,122.925964 29.153915,121.611107 29.153915,118.836700 
	C32.526371,119.758698 35.409992,120.547043 38.476669,121.693970 
z"/>
<path fill="#E7E7E7" opacity="1.000000" stroke="none" 
	d="
M100.022217,137.101730 
	C94.109268,138.625305 93.639397,138.250107 94.433075,132.772842 
	C96.827255,132.772842 99.265724,132.772842 102.701981,132.772842 
	C101.770538,134.467010 101.089073,135.706528 100.022217,137.101730 
z"/>
<path fill="#F4F4F4" opacity="1.000000" stroke="none" 
	d="
M54.759064,137.915695 
	C52.471127,137.328171 49.350410,137.030228 49.005527,135.891541 
	C48.252193,133.404297 48.487801,130.370453 49.211483,127.812256 
	C49.477234,126.872841 52.328915,126.085327 53.874393,126.272751 
	C55.089161,126.420067 57.087479,128.227982 57.032146,129.201248 
	C56.867290,132.101120 55.862072,134.953217 54.759064,137.915695 
z"/>
<path fill="#F4F4F4" opacity="1.000000" stroke="none" 
	d="
M125.219345,132.073654 
	C125.488327,128.055862 126.835205,125.336861 131.056686,126.133850 
	C135.782272,127.026009 134.891113,130.978241 134.684601,134.149918 
	C134.465027,137.522232 131.822433,139.037750 129.072647,137.839767 
	C127.337341,137.083771 126.472946,134.328705 125.219345,132.073654 
z"/>
<path fill="#F4F4F4" opacity="1.000000" stroke="none" 
	d="
M164.344986,127.419548 
	C166.898499,127.180786 170.805542,126.568947 171.181244,127.454803 
	C172.242233,129.956436 172.243881,133.132019 171.818893,135.913040 
	C171.676865,136.842377 169.026855,137.864227 167.450699,137.999786 
	C164.139206,138.284622 163.246384,135.798325 163.267349,133.081772 
	C163.281128,131.295914 163.795914,129.513931 164.344986,127.419548 
z"/>
</svg>