<svg width="1000" height="1000" viewBox="0 0 1000 1000" fill="none" xmlns="http://www.w3.org/2000/svg">
<g clip-path="url(#clip0_9_8)">
<path d="M687.5 500C687.5 543.359 685.156 585.156 681.055 625H318.945C314.648 585.156 312.5 543.359 312.5 500C312.5 456.641 314.844 414.844 318.945 375H681.055C685.352 414.844 687.5 456.641 687.5 500ZM743.75 375H984.18C994.531 415.039 1000 456.836 1000 500C1000 543.164 994.531 584.961 984.18 625H743.75C747.852 584.766 750 542.969 750 500C750 457.031 747.852 415.234 743.75 375ZM963.672 312.5H735.742C716.211 187.695 677.539 83.2031 627.734 16.4062C780.664 56.8359 905.078 167.773 963.477 312.5H963.672ZM672.461 312.5H327.539C339.453 241.406 357.812 178.516 380.273 127.539C400.781 81.4453 423.633 48.0469 445.703 26.9531C467.578 6.25 485.742 0 500 0C514.258 0 532.422 6.25 554.297 26.9531C576.367 48.0469 599.219 81.4453 619.727 127.539C642.383 178.32 660.742 241.211 672.461 312.5V312.5ZM264.258 312.5H36.3281C94.9219 167.773 219.141 56.8359 372.266 16.4062C322.461 83.2031 283.789 187.695 264.258 312.5V312.5ZM15.8203 375H256.25C252.148 415.234 250 457.031 250 500C250 542.969 252.148 584.766 256.25 625H15.8203C5.46875 584.961 0 543.164 0 500C0 456.836 5.46875 415.039 15.8203 375ZM380.273 872.266C357.617 821.484 339.453 758.594 327.539 687.5H672.461C660.547 758.594 642.187 821.484 619.727 872.266C599.219 918.359 576.367 951.758 554.297 972.852C532.422 993.75 514.258 1000 500 1000C485.742 1000 467.578 993.75 445.703 973.047C423.633 951.953 400.781 918.555 380.273 872.461V872.266ZM264.258 687.5C283.789 812.305 322.461 916.797 372.266 983.594C219.141 943.164 94.9219 832.227 36.3281 687.5H264.258ZM963.672 687.5C905.078 832.227 780.859 943.164 627.93 983.594C677.734 916.797 716.211 812.305 735.937 687.5H963.672V687.5Z" fill="#137DB8"/>
</g>
<defs>
<clipPath id="clip0_9_8">
<rect width="1000" height="1000" fill="white"/>
</clipPath>
</defs>
</svg>
